<mxfile host="app.diagrams.net" modified="2023-03-21T23:42:06.583Z" agent="5.0 (Windows NT 10.0; Win64; x64) AppleWebKit/537.36 (KHTML, like Gecko) Chrome/111.0.0.0 Safari/537.36 Edg/111.0.1661.44" etag="pYwEiZewsF5fmNkreRIj" version="21.0.8" type="github" pages="2">
  <diagram name="CloudFront internal working" id="V3r-wftrt_TkLbyYv9ro">
    <mxGraphModel dx="2290" dy="1102" grid="1" gridSize="10" guides="1" tooltips="1" connect="1" arrows="1" fold="1" page="0" pageScale="1" pageWidth="850" pageHeight="1100" math="0" shadow="0">
      <root>
        <mxCell id="0" />
        <mxCell id="1" parent="0" />
        <mxCell id="EF10ieTRmU6v6lISkYv6-4" style="edgeStyle=orthogonalEdgeStyle;rounded=0;orthogonalLoop=1;jettySize=auto;html=1;entryX=0.5;entryY=1;entryDx=0;entryDy=0;" edge="1" parent="1" source="EF10ieTRmU6v6lISkYv6-1" target="EF10ieTRmU6v6lISkYv6-3">
          <mxGeometry relative="1" as="geometry" />
        </mxCell>
        <mxCell id="EF10ieTRmU6v6lISkYv6-1" value="" style="sketch=0;points=[[0,0,0],[0.25,0,0],[0.5,0,0],[0.75,0,0],[1,0,0],[0,1,0],[0.25,1,0],[0.5,1,0],[0.75,1,0],[1,1,0],[0,0.25,0],[0,0.5,0],[0,0.75,0],[1,0.25,0],[1,0.5,0],[1,0.75,0]];outlineConnect=0;fontColor=#232F3E;gradientColor=#60A337;gradientDirection=north;fillColor=#277116;strokeColor=#ffffff;dashed=0;verticalLabelPosition=bottom;verticalAlign=top;align=center;html=1;fontSize=12;fontStyle=0;aspect=fixed;shape=mxgraph.aws4.resourceIcon;resIcon=mxgraph.aws4.s3;" vertex="1" parent="1">
          <mxGeometry x="90" y="410" width="100" height="100" as="geometry" />
        </mxCell>
        <mxCell id="EF10ieTRmU6v6lISkYv6-2" value="&lt;p style=&quot;line-height: 170%;&quot;&gt;&lt;font style=&quot;font-size: 16px;&quot;&gt;&lt;b&gt;&lt;font color=&quot;#3399ff&quot;&gt;S3 bucket&lt;/font&gt;&lt;/b&gt; acting as the &lt;b&gt;&lt;font color=&quot;#3399ff&quot;&gt;CloudFront Origin&lt;/font&gt;&lt;/b&gt;&lt;/font&gt;&lt;/p&gt;" style="text;strokeColor=none;align=center;fillColor=none;html=1;verticalAlign=middle;whiteSpace=wrap;rounded=0;fontFamily=Poppins;fontSource=https%3A%2F%2Ffonts.googleapis.com%2Fcss%3Ffamily%3DPoppins;" vertex="1" parent="1">
          <mxGeometry x="50" y="520" width="180" height="40" as="geometry" />
        </mxCell>
        <mxCell id="EF10ieTRmU6v6lISkYv6-13" style="edgeStyle=orthogonalEdgeStyle;rounded=0;orthogonalLoop=1;jettySize=auto;html=1;entryX=0.5;entryY=1;entryDx=0;entryDy=0;" edge="1" parent="1" source="EF10ieTRmU6v6lISkYv6-3" target="EF10ieTRmU6v6lISkYv6-7">
          <mxGeometry relative="1" as="geometry" />
        </mxCell>
        <mxCell id="EF10ieTRmU6v6lISkYv6-16" style="edgeStyle=orthogonalEdgeStyle;rounded=0;orthogonalLoop=1;jettySize=auto;html=1;entryX=0.5;entryY=1;entryDx=0;entryDy=0;" edge="1" parent="1" source="EF10ieTRmU6v6lISkYv6-3" target="EF10ieTRmU6v6lISkYv6-11">
          <mxGeometry relative="1" as="geometry" />
        </mxCell>
        <mxCell id="EF10ieTRmU6v6lISkYv6-3" value="" style="rounded=1;whiteSpace=wrap;html=1;" vertex="1" parent="1">
          <mxGeometry x="-40" y="200" width="360" height="40" as="geometry" />
        </mxCell>
        <mxCell id="EF10ieTRmU6v6lISkYv6-14" style="edgeStyle=orthogonalEdgeStyle;rounded=0;orthogonalLoop=1;jettySize=auto;html=1;entryX=0.5;entryY=1;entryDx=0;entryDy=0;" edge="1" parent="1" source="EF10ieTRmU6v6lISkYv6-6" target="EF10ieTRmU6v6lISkYv6-9">
          <mxGeometry relative="1" as="geometry" />
        </mxCell>
        <mxCell id="EF10ieTRmU6v6lISkYv6-6" value="&lt;p style=&quot;line-height: 170%;&quot;&gt;&lt;font color=&quot;#3399ff&quot;&gt;&lt;span style=&quot;font-size: 16px;&quot;&gt;&lt;b&gt;Regional Edge Cache&lt;/b&gt;&lt;/span&gt;&lt;/font&gt;&lt;/p&gt;" style="text;strokeColor=none;align=center;fillColor=none;html=1;verticalAlign=middle;whiteSpace=wrap;rounded=0;fontFamily=Poppins;fontSource=https%3A%2F%2Ffonts.googleapis.com%2Fcss%3Ffamily%3DPoppins;" vertex="1" parent="1">
          <mxGeometry x="50" y="200" width="180" height="40" as="geometry" />
        </mxCell>
        <mxCell id="EF10ieTRmU6v6lISkYv6-17" style="edgeStyle=orthogonalEdgeStyle;rounded=0;orthogonalLoop=1;jettySize=auto;html=1;" edge="1" parent="1" source="EF10ieTRmU6v6lISkYv6-7">
          <mxGeometry relative="1" as="geometry">
            <mxPoint x="-35" y="-80" as="targetPoint" />
          </mxGeometry>
        </mxCell>
        <mxCell id="EF10ieTRmU6v6lISkYv6-7" value="" style="rounded=1;whiteSpace=wrap;html=1;" vertex="1" parent="1">
          <mxGeometry x="-110" y="30" width="150" height="40" as="geometry" />
        </mxCell>
        <mxCell id="EF10ieTRmU6v6lISkYv6-8" value="&lt;p style=&quot;line-height: 170%;&quot;&gt;&lt;font color=&quot;#3399ff&quot;&gt;&lt;span style=&quot;font-size: 16px;&quot;&gt;&lt;b&gt;Edge Location&lt;/b&gt;&lt;/span&gt;&lt;/font&gt;&lt;/p&gt;" style="text;strokeColor=none;align=center;fillColor=none;html=1;verticalAlign=middle;whiteSpace=wrap;rounded=0;fontFamily=Poppins;fontSource=https%3A%2F%2Ffonts.googleapis.com%2Fcss%3Ffamily%3DPoppins;" vertex="1" parent="1">
          <mxGeometry x="-100" y="35" width="130" height="30" as="geometry" />
        </mxCell>
        <mxCell id="EF10ieTRmU6v6lISkYv6-9" value="" style="rounded=1;whiteSpace=wrap;html=1;" vertex="1" parent="1">
          <mxGeometry x="65" y="30" width="150" height="40" as="geometry" />
        </mxCell>
        <mxCell id="EF10ieTRmU6v6lISkYv6-10" value="&lt;p style=&quot;line-height: 170%;&quot;&gt;&lt;font color=&quot;#3399ff&quot;&gt;&lt;span style=&quot;font-size: 16px;&quot;&gt;&lt;b&gt;Edge Location&lt;/b&gt;&lt;/span&gt;&lt;/font&gt;&lt;/p&gt;" style="text;strokeColor=none;align=center;fillColor=none;html=1;verticalAlign=middle;whiteSpace=wrap;rounded=0;fontFamily=Poppins;fontSource=https%3A%2F%2Ffonts.googleapis.com%2Fcss%3Ffamily%3DPoppins;" vertex="1" parent="1">
          <mxGeometry x="75" y="35" width="130" height="30" as="geometry" />
        </mxCell>
        <mxCell id="EF10ieTRmU6v6lISkYv6-11" value="" style="rounded=1;whiteSpace=wrap;html=1;" vertex="1" parent="1">
          <mxGeometry x="240" y="30" width="150" height="40" as="geometry" />
        </mxCell>
        <mxCell id="EF10ieTRmU6v6lISkYv6-12" value="&lt;p style=&quot;line-height: 170%;&quot;&gt;&lt;font color=&quot;#3399ff&quot;&gt;&lt;span style=&quot;font-size: 16px;&quot;&gt;&lt;b&gt;Edge Location&lt;/b&gt;&lt;/span&gt;&lt;/font&gt;&lt;/p&gt;" style="text;strokeColor=none;align=center;fillColor=none;html=1;verticalAlign=middle;whiteSpace=wrap;rounded=0;fontFamily=Poppins;fontSource=https%3A%2F%2Ffonts.googleapis.com%2Fcss%3Ffamily%3DPoppins;" vertex="1" parent="1">
          <mxGeometry x="250" y="35" width="130" height="30" as="geometry" />
        </mxCell>
        <mxCell id="EF10ieTRmU6v6lISkYv6-18" value="" style="image;aspect=fixed;perimeter=ellipsePerimeter;html=1;align=center;shadow=0;dashed=0;spacingTop=3;image=img/lib/active_directory/mac_client.svg;" vertex="1" parent="1">
          <mxGeometry x="-85" y="-230" width="100" height="106.38" as="geometry" />
        </mxCell>
        <mxCell id="EF10ieTRmU6v6lISkYv6-19" value="&lt;p style=&quot;line-height: 170%;&quot;&gt;&lt;font color=&quot;#3399ff&quot;&gt;&lt;span style=&quot;font-size: 16px;&quot;&gt;&lt;b&gt;Client&lt;/b&gt;&lt;/span&gt;&lt;/font&gt;&lt;/p&gt;" style="text;strokeColor=none;align=center;fillColor=none;html=1;verticalAlign=middle;whiteSpace=wrap;rounded=0;fontFamily=Poppins;fontSource=https%3A%2F%2Ffonts.googleapis.com%2Fcss%3Ffamily%3DPoppins;" vertex="1" parent="1">
          <mxGeometry x="-65" y="-120" width="60" height="30" as="geometry" />
        </mxCell>
        <mxCell id="EF10ieTRmU6v6lISkYv6-21" value="&lt;p style=&quot;line-height: 177%;&quot;&gt;&lt;span style=&quot;font-size: 16px;&quot;&gt;&lt;font color=&quot;#33ff99&quot;&gt;&lt;b&gt;scoped to an AWS region&lt;/b&gt;&lt;/font&gt;&lt;font color=&quot;#ffffff&quot;&gt;. Size of this cache is much larger. The &lt;/font&gt;&lt;b style=&quot;&quot;&gt;&lt;font color=&quot;#ff6666&quot;&gt;content is first cached here&lt;/font&gt;&lt;/b&gt;&lt;font color=&quot;#ffffff&quot;&gt;.&lt;/font&gt;&lt;/span&gt;&lt;/p&gt;" style="text;strokeColor=none;align=left;fillColor=none;html=1;verticalAlign=middle;whiteSpace=wrap;rounded=0;fontFamily=Poppins;fontSource=https%3A%2F%2Ffonts.googleapis.com%2Fcss%3Ffamily%3DPoppins;" vertex="1" parent="1">
          <mxGeometry x="330" y="182.5" width="380" height="75" as="geometry" />
        </mxCell>
        <mxCell id="EF10ieTRmU6v6lISkYv6-22" value="&lt;p style=&quot;line-height: 177%;&quot;&gt;&lt;span style=&quot;font-size: 16px;&quot;&gt;&lt;b style=&quot;&quot;&gt;&lt;font color=&quot;#33ff99&quot;&gt;scoped to an AWS availability zone&lt;/font&gt;&lt;/b&gt;&lt;font color=&quot;#ffffff&quot;&gt;. &lt;/font&gt;&lt;font color=&quot;#ff6666&quot;&gt;&lt;b&gt;Only very popular content is cached here&lt;/b&gt;&lt;/font&gt;&lt;font style=&quot;&quot; color=&quot;#ffffff&quot;&gt;.&lt;/font&gt;&lt;/span&gt;&lt;/p&gt;" style="text;strokeColor=none;align=left;fillColor=none;html=1;verticalAlign=middle;whiteSpace=wrap;rounded=0;fontFamily=Poppins;fontSource=https%3A%2F%2Ffonts.googleapis.com%2Fcss%3Ffamily%3DPoppins;" vertex="1" parent="1">
          <mxGeometry x="-490" y="22.5" width="370" height="55" as="geometry" />
        </mxCell>
      </root>
    </mxGraphModel>
  </diagram>
  <diagram id="hDz3sKM490FH-KXC5BU7" name="S3 Origin Group">
    <mxGraphModel dx="2690" dy="702" grid="1" gridSize="10" guides="1" tooltips="1" connect="1" arrows="1" fold="1" page="0" pageScale="1" pageWidth="850" pageHeight="1100" math="0" shadow="0">
      <root>
        <mxCell id="0" />
        <mxCell id="1" parent="0" />
        <mxCell id="sO7FDEx-i8yem20rKlk1-4" value="" style="rounded=1;whiteSpace=wrap;html=1;" vertex="1" parent="1">
          <mxGeometry x="-320" y="30" width="240" height="220" as="geometry" />
        </mxCell>
        <mxCell id="sO7FDEx-i8yem20rKlk1-2" value="" style="sketch=0;points=[[0,0,0],[0.25,0,0],[0.5,0,0],[0.75,0,0],[1,0,0],[0,1,0],[0.25,1,0],[0.5,1,0],[0.75,1,0],[1,1,0],[0,0.25,0],[0,0.5,0],[0,0.75,0],[1,0.25,0],[1,0.5,0],[1,0.75,0]];outlineConnect=0;fontColor=#232F3E;gradientColor=#60A337;gradientDirection=north;fillColor=#277116;strokeColor=#ffffff;dashed=0;verticalLabelPosition=bottom;verticalAlign=top;align=center;html=1;fontSize=12;fontStyle=0;aspect=fixed;shape=mxgraph.aws4.resourceIcon;resIcon=mxgraph.aws4.s3;" vertex="1" parent="1">
          <mxGeometry x="-250" y="90" width="100" height="100" as="geometry" />
        </mxCell>
        <mxCell id="sO7FDEx-i8yem20rKlk1-3" value="&lt;font color=&quot;#3399ff&quot; data-font-src=&quot;https://fonts.googleapis.com/css?family=Poppins&quot; face=&quot;Poppins&quot; style=&quot;font-size: 16px;&quot;&gt;&lt;b&gt;Primary Origin&lt;/b&gt;&lt;/font&gt;" style="text;strokeColor=none;align=center;fillColor=none;html=1;verticalAlign=middle;whiteSpace=wrap;rounded=0;" vertex="1" parent="1">
          <mxGeometry x="-260" y="190" width="120" height="30" as="geometry" />
        </mxCell>
        <mxCell id="sO7FDEx-i8yem20rKlk1-5" value="" style="rounded=1;whiteSpace=wrap;html=1;" vertex="1" parent="1">
          <mxGeometry x="-320" y="400" width="240" height="220" as="geometry" />
        </mxCell>
        <mxCell id="sO7FDEx-i8yem20rKlk1-6" value="" style="sketch=0;points=[[0,0,0],[0.25,0,0],[0.5,0,0],[0.75,0,0],[1,0,0],[0,1,0],[0.25,1,0],[0.5,1,0],[0.75,1,0],[1,1,0],[0,0.25,0],[0,0.5,0],[0,0.75,0],[1,0.25,0],[1,0.5,0],[1,0.75,0]];outlineConnect=0;fontColor=#232F3E;gradientColor=#60A337;gradientDirection=north;fillColor=#277116;strokeColor=#ffffff;dashed=0;verticalLabelPosition=bottom;verticalAlign=top;align=center;html=1;fontSize=12;fontStyle=0;aspect=fixed;shape=mxgraph.aws4.resourceIcon;resIcon=mxgraph.aws4.s3;" vertex="1" parent="1">
          <mxGeometry x="-250" y="460" width="100" height="100" as="geometry" />
        </mxCell>
        <mxCell id="sO7FDEx-i8yem20rKlk1-7" value="&lt;font color=&quot;#3399ff&quot; data-font-src=&quot;https://fonts.googleapis.com/css?family=Poppins&quot; face=&quot;Poppins&quot; style=&quot;font-size: 16px;&quot;&gt;&lt;b&gt;Secondary Origin&lt;/b&gt;&lt;/font&gt;" style="text;strokeColor=none;align=center;fillColor=none;html=1;verticalAlign=middle;whiteSpace=wrap;rounded=0;" vertex="1" parent="1">
          <mxGeometry x="-270" y="560" width="140" height="30" as="geometry" />
        </mxCell>
        <mxCell id="sO7FDEx-i8yem20rKlk1-9" style="edgeStyle=orthogonalEdgeStyle;rounded=0;orthogonalLoop=1;jettySize=auto;html=1;entryX=0.5;entryY=0;entryDx=0;entryDy=0;entryPerimeter=0;" edge="1" parent="1" source="sO7FDEx-i8yem20rKlk1-3" target="sO7FDEx-i8yem20rKlk1-6">
          <mxGeometry relative="1" as="geometry" />
        </mxCell>
        <mxCell id="sO7FDEx-i8yem20rKlk1-10" value="&lt;font color=&quot;#ffffff&quot; data-font-src=&quot;https://fonts.googleapis.com/css?family=Poppins&quot; face=&quot;Poppins&quot; style=&quot;font-size: 16px;&quot;&gt;Data Replication&lt;/font&gt;" style="text;strokeColor=none;align=center;fillColor=none;html=1;verticalAlign=middle;whiteSpace=wrap;rounded=0;" vertex="1" parent="1">
          <mxGeometry x="-190" y="320" width="140" height="30" as="geometry" />
        </mxCell>
        <mxCell id="sO7FDEx-i8yem20rKlk1-14" style="edgeStyle=orthogonalEdgeStyle;rounded=0;orthogonalLoop=1;jettySize=auto;html=1;entryX=0;entryY=0.5;entryDx=0;entryDy=0;" edge="1" parent="1" source="sO7FDEx-i8yem20rKlk1-11" target="sO7FDEx-i8yem20rKlk1-5">
          <mxGeometry relative="1" as="geometry" />
        </mxCell>
        <mxCell id="sO7FDEx-i8yem20rKlk1-15" style="edgeStyle=orthogonalEdgeStyle;rounded=0;orthogonalLoop=1;jettySize=auto;html=1;entryX=0;entryY=0.5;entryDx=0;entryDy=0;fontColor=#FFFFFF;strokeColor=#FF6666;" edge="1" parent="1" source="sO7FDEx-i8yem20rKlk1-11" target="sO7FDEx-i8yem20rKlk1-4">
          <mxGeometry relative="1" as="geometry" />
        </mxCell>
        <mxCell id="sO7FDEx-i8yem20rKlk1-11" value="" style="sketch=0;points=[[0,0,0],[0.25,0,0],[0.5,0,0],[0.75,0,0],[1,0,0],[0,1,0],[0.25,1,0],[0.5,1,0],[0.75,1,0],[1,1,0],[0,0.25,0],[0,0.5,0],[0,0.75,0],[1,0.25,0],[1,0.5,0],[1,0.75,0]];outlineConnect=0;fontColor=#232F3E;gradientColor=#945DF2;gradientDirection=north;fillColor=#5A30B5;strokeColor=#ffffff;dashed=0;verticalLabelPosition=bottom;verticalAlign=top;align=center;html=1;fontSize=12;fontStyle=0;aspect=fixed;shape=mxgraph.aws4.resourceIcon;resIcon=mxgraph.aws4.cloudfront;" vertex="1" parent="1">
          <mxGeometry x="-840" y="285" width="100" height="100" as="geometry" />
        </mxCell>
        <mxCell id="sO7FDEx-i8yem20rKlk1-16" value="&lt;font color=&quot;#ffffff&quot; data-font-src=&quot;https://fonts.googleapis.com/css?family=Poppins&quot; face=&quot;Poppins&quot; style=&quot;font-size: 16px;&quot;&gt;failover&lt;/font&gt;" style="text;strokeColor=none;align=center;fillColor=none;html=1;verticalAlign=middle;whiteSpace=wrap;rounded=0;" vertex="1" parent="1">
          <mxGeometry x="-460" y="100" width="80" height="30" as="geometry" />
        </mxCell>
        <mxCell id="sO7FDEx-i8yem20rKlk1-17" value="&lt;font color=&quot;#ffffff&quot; data-font-src=&quot;https://fonts.googleapis.com/css?family=Poppins&quot; face=&quot;Poppins&quot; style=&quot;font-size: 16px;&quot;&gt;relying on the secondary origin&lt;/font&gt;" style="text;strokeColor=none;align=center;fillColor=none;html=1;verticalAlign=middle;whiteSpace=wrap;rounded=0;" vertex="1" parent="1">
          <mxGeometry x="-550" y="520" width="260" height="30" as="geometry" />
        </mxCell>
        <mxCell id="sO7FDEx-i8yem20rKlk1-18" value="&lt;font color=&quot;#66ffb3&quot; face=&quot;Poppins&quot;&gt;&lt;span style=&quot;font-size: 16px;&quot;&gt;&lt;b&gt;AWS Region A&lt;/b&gt;&lt;/span&gt;&lt;/font&gt;" style="text;strokeColor=none;align=center;fillColor=none;html=1;verticalAlign=middle;whiteSpace=wrap;rounded=0;" vertex="1" parent="1">
          <mxGeometry x="-310" y="40" width="120" height="30" as="geometry" />
        </mxCell>
        <mxCell id="sO7FDEx-i8yem20rKlk1-19" value="&lt;font color=&quot;#66ffb3&quot; face=&quot;Poppins&quot;&gt;&lt;span style=&quot;font-size: 16px;&quot;&gt;&lt;b&gt;AWS Region B&lt;/b&gt;&lt;/span&gt;&lt;/font&gt;" style="text;strokeColor=none;align=center;fillColor=none;html=1;verticalAlign=middle;whiteSpace=wrap;rounded=0;" vertex="1" parent="1">
          <mxGeometry x="-310" y="410" width="120" height="30" as="geometry" />
        </mxCell>
      </root>
    </mxGraphModel>
  </diagram>
</mxfile>
